<?xml version="1.0" encoding="utf-8"?>
<!-- Generator: Adobe Illustrator 25.0.1, SVG Export Plug-In . SVG Version: 6.00 Build 0)  -->
<svg version="1.0" id="katman_1" xmlns="http://www.w3.org/2000/svg" xmlns:xlink="http://www.w3.org/1999/xlink" x="0px" y="0px"
	 viewBox="0 0 3502.7 2574.7" style="enable-background:new 0 0 3502.7 2574.7;" xml:space="preserve">
<style type="text/css">
	.st0{clip-path:url(#SVGID_2_);fill-rule:evenodd;clip-rule:evenodd;fill:#010101;}
	.st1{clip-path:url(#SVGID_2_);fill-rule:evenodd;clip-rule:evenodd;fill:#EE1D51;}
	.st2{clip-path:url(#SVGID_2_);fill-rule:evenodd;clip-rule:evenodd;fill:#66C8CF;}
	.st3{clip-path:url(#SVGID_2_);fill-rule:evenodd;clip-rule:evenodd;fill:#FFFFFF;}
	.st4{clip-path:url(#SVGID_2_);fill-rule:evenodd;clip-rule:evenodd;fill:#EE1D52;}
	.st5{clip-path:url(#SVGID_2_);fill-rule:evenodd;clip-rule:evenodd;fill:#69C9D0;}
</style>
<g>
	<defs>
		<rect id="SVGID_1_" x="501.3" y="37.3" width="2500" height="2500"/>
	</defs>
	<clipPath id="SVGID_2_">
		<use xlink:href="#SVGID_1_"  style="overflow:visible;"/>
	</clipPath>
	<path class="st0" d="M949.7,285.2H2553c110.7,0,200.4,89.7,200.4,200.4V2089c0,110.7-89.7,200.4-200.4,200.4H949.7
		c-110.7,0-200.4-89.7-200.4-200.4V485.7C749.2,375,839,285.2,949.7,285.2"/>
	<path class="st1" d="M2007.7,2129.1c61,0,110.4-49,110.4-109.5c0-60.5-49.4-109.5-110.4-109.5h-16.6c61,0,110.4,49,110.4,109.5
		c0,60.5-49.4,109.5-110.4,109.5H2007.7z"/>
	<path class="st2" d="M1989.6,1910h-16.6c-61,0-110.4,49-110.4,109.5c0,60.5,49.4,109.5,110.4,109.5h16.6
		c-61,0-110.4-49-110.4-109.5C1879.1,1959.1,1928.6,1910,1989.6,1910"/>
	<path class="st0" d="M1990.3,1966.3c29.7,0,53.7,23.8,53.7,53.3c0,29.4-24,53.3-53.7,53.3c-29.7,0-53.7-23.8-53.7-53.3
		C1936.6,1990.2,1960.7,1966.3,1990.3,1966.3"/>
	<path class="st3" d="M1150.1,1860.5v55.5h65v211.5h65.1v-210h52.9l18.2-57H1150.1z M1682.5,1860.5v55.5h65v211.5h65.1v-210h52.9
		l18.2-57H1682.5z M1363.4,1892c0-17.4,14.2-31.5,31.7-31.5c17.6,0,31.8,14.1,31.8,31.5c0,17.4-14.2,31.5-31.8,31.5
		C1377.6,1923.5,1363.4,1909.4,1363.4,1892 M1363.4,1946.1h63.5v181.5h-63.5V1946.1z M1454.1,1860.5v267.1h63.5v-69l19.7-18l62,88.5
		h68.1l-89.3-129l80.2-78h-77.1l-63.5,63v-124.5H1454.1z M2139.3,1860.5v267.1h63.5v-69l19.7-18l62,88.5h68.1l-89.3-129l80.2-78
		h-77.1l-63.5,63v-124.5H2139.3z"/>
	<path class="st4" d="M2041.3,936.1c87.7,62.7,195.2,99.6,311.3,99.6V812.4c-22,0-43.9-2.3-65.4-6.8v175.8
		c-116.1,0-223.5-36.9-311.3-99.6v455.6c0,227.9-184.9,412.7-412.9,412.7c-85.1,0-164.2-25.7-229.9-69.8
		c75,76.6,179.5,124.2,295.2,124.2c228.1,0,412.9-184.8,412.9-412.7L2041.3,936.1L2041.3,936.1z M2121.9,710.8
		c-44.8-49-74.3-112.2-80.6-182.2v-28.7h-62C1994.9,588.8,2048.1,664.8,2121.9,710.8 M1477.4,1505.3c-25-32.8-38.6-73-38.5-114.3
		c0-104.2,84.6-188.8,188.9-188.8c19.4,0,38.8,3,57.3,8.8V982.9c-21.7-3-43.5-4.2-65.4-3.8v177.7c-18.5-5.9-37.9-8.9-57.3-8.8
		c-104.3,0-188.9,84.5-188.9,188.8C1373.5,1410.4,1415.7,1474.3,1477.4,1505.3"/>
	<path class="st3" d="M1975.9,881.7c87.8,62.7,195.2,99.6,311.3,99.6V805.5c-64.8-13.8-122.2-47.6-165.3-94.7
		c-73.8-46-127-122-142.6-210.9h-162.7v891.8c-0.4,104-84.8,188.1-188.9,188.1c-61.3,0-115.8-29.2-150.4-74.5
		c-61.6-31.1-103.9-94.9-103.9-168.6c0-104.3,84.6-188.8,188.9-188.8c20,0,39.2,3.1,57.3,8.8V979.1
		c-224,4.6-404.2,187.6-404.2,412.6c0,112.3,44.9,214.2,117.7,288.5c65.7,44.1,144.8,69.8,229.9,69.8c228,0,412.9-184.8,412.9-412.7
		V881.7z"/>
	<path class="st5" d="M2287.2,805.5V758c-58.4,0.1-115.7-16.3-165.3-47.2C2165.8,758.8,2223.6,792,2287.2,805.5 M1979.3,499.9
		c-1.5-8.5-2.6-17-3.4-25.6v-28.7h-224.7v891.8c-0.4,104-84.8,188.1-188.9,188.1c-30.6,0-59.4-7.2-85-20.1
		c34.5,45.3,89,74.5,150.4,74.5c104.1,0,188.5-84.2,188.9-188.1V499.9H1979.3z M1619.7,979.1v-50.6c-18.8-2.6-37.7-3.8-56.7-3.8
		c-228.1,0-412.9,184.8-412.9,412.7c0,142.9,72.7,268.8,183.1,342.9c-72.8-74.4-117.7-176.2-117.7-288.5
		C1215.5,1166.7,1395.6,983.7,1619.7,979.1"/>
	<path class="st3" d="M1991.1,2129.1c61,0,110.4-49,110.4-109.5s-49.4-109.5-110.4-109.5h-1.5c-61,0-110.4,49-110.4,109.5
		s49.4,109.5,110.4,109.5H1991.1z M1936.6,2019.6c0-29.4,24.1-53.3,53.7-53.3c29.6,0,53.7,23.8,53.7,53.3c0,29.4-24,53.3-53.7,53.3
		C1960.7,2072.8,1936.6,2049,1936.6,2019.6"/>
</g>
</svg>
